<mxfile host="app.diagrams.net" modified="2020-12-15T16:09:38.874Z" agent="5.0 (Macintosh; Intel Mac OS X 10_15_7) AppleWebKit/537.36 (KHTML, like Gecko) Chrome/87.0.4280.88 Safari/537.36" etag="wBfQhv5JetBVxEJB9uRw" version="14.0.1" type="github">
  <diagram id="MxY7P8gVSo5Cz-rVdP8U" name="Page-1">
    <mxGraphModel dx="1577" dy="2059" grid="1" gridSize="10" guides="1" tooltips="1" connect="1" arrows="1" fold="1" page="1" pageScale="1" pageWidth="827" pageHeight="1169" math="0" shadow="0">
      <root>
        <mxCell id="0" />
        <mxCell id="1" parent="0" />
        <mxCell id="OuveFojcmuEkYfxnia5m-3" value="product" style="rounded=1;whiteSpace=wrap;html=1;fillColor=#fff2cc;strokeColor=#d6b656;" parent="1" vertex="1">
          <mxGeometry x="350" y="250" width="120" height="60" as="geometry" />
        </mxCell>
        <mxCell id="OuveFojcmuEkYfxnia5m-4" value="id" style="ellipse;whiteSpace=wrap;html=1;fillColor=#dae8fc;strokeColor=#6c8ebf;" parent="1" vertex="1">
          <mxGeometry x="250" y="160" width="80" height="40" as="geometry" />
        </mxCell>
        <mxCell id="OuveFojcmuEkYfxnia5m-5" value="barcode" style="ellipse;whiteSpace=wrap;html=1;fillColor=#dae8fc;strokeColor=#6c8ebf;" parent="1" vertex="1">
          <mxGeometry x="230" y="220" width="80" height="40" as="geometry" />
        </mxCell>
        <mxCell id="OuveFojcmuEkYfxnia5m-6" value="code" style="ellipse;whiteSpace=wrap;html=1;fillColor=#dae8fc;strokeColor=#6c8ebf;" parent="1" vertex="1">
          <mxGeometry x="340" y="150" width="80" height="40" as="geometry" />
        </mxCell>
        <mxCell id="OuveFojcmuEkYfxnia5m-7" value="href" style="ellipse;whiteSpace=wrap;html=1;fillColor=#dae8fc;strokeColor=#6c8ebf;" parent="1" vertex="1">
          <mxGeometry x="230" y="270" width="80" height="40" as="geometry" />
        </mxCell>
        <mxCell id="OuveFojcmuEkYfxnia5m-8" value="imagesProduct" style="ellipse;whiteSpace=wrap;html=1;fillColor=#dae8fc;strokeColor=#6c8ebf;" parent="1" vertex="1">
          <mxGeometry x="230" y="320" width="80" height="40" as="geometry" />
        </mxCell>
        <mxCell id="OuveFojcmuEkYfxnia5m-9" value="productName" style="ellipse;whiteSpace=wrap;html=1;fillColor=#dae8fc;strokeColor=#6c8ebf;" parent="1" vertex="1">
          <mxGeometry x="440" y="170" width="80" height="40" as="geometry" />
        </mxCell>
        <mxCell id="OuveFojcmuEkYfxnia5m-10" value="productType" style="ellipse;whiteSpace=wrap;html=1;fillColor=#dae8fc;strokeColor=#6c8ebf;" parent="1" vertex="1">
          <mxGeometry x="500" y="210" width="80" height="40" as="geometry" />
        </mxCell>
        <mxCell id="OuveFojcmuEkYfxnia5m-11" value="tags" style="ellipse;whiteSpace=wrap;html=1;fillColor=#dae8fc;strokeColor=#6c8ebf;" parent="1" vertex="1">
          <mxGeometry x="490" y="260" width="80" height="40" as="geometry" />
        </mxCell>
        <mxCell id="OuveFojcmuEkYfxnia5m-12" value="startus" style="ellipse;whiteSpace=wrap;html=1;fillColor=#dae8fc;strokeColor=#6c8ebf;" parent="1" vertex="1">
          <mxGeometry x="230" y="390" width="80" height="40" as="geometry" />
        </mxCell>
        <mxCell id="OuveFojcmuEkYfxnia5m-14" value="productDetail&lt;br&gt;" style="rounded=1;whiteSpace=wrap;html=1;fillColor=#fff2cc;strokeColor=#d6b656;" parent="1" vertex="1">
          <mxGeometry x="700" y="290" width="120" height="60" as="geometry" />
        </mxCell>
        <mxCell id="OuveFojcmuEkYfxnia5m-15" value="id" style="ellipse;whiteSpace=wrap;html=1;fillColor=#dae8fc;strokeColor=#6c8ebf;" parent="1" vertex="1">
          <mxGeometry x="650" y="200" width="80" height="40" as="geometry" />
        </mxCell>
        <mxCell id="OuveFojcmuEkYfxnia5m-16" value="images" style="ellipse;whiteSpace=wrap;html=1;fillColor=#dae8fc;strokeColor=#6c8ebf;" parent="1" vertex="1">
          <mxGeometry x="730" y="170" width="80" height="40" as="geometry" />
        </mxCell>
        <mxCell id="OuveFojcmuEkYfxnia5m-17" value="content" style="ellipse;whiteSpace=wrap;html=1;fillColor=#dae8fc;strokeColor=#6c8ebf;" parent="1" vertex="1">
          <mxGeometry x="827" y="190" width="80" height="40" as="geometry" />
        </mxCell>
        <mxCell id="OuveFojcmuEkYfxnia5m-18" value="color" style="ellipse;whiteSpace=wrap;html=1;fillColor=#dae8fc;strokeColor=#6c8ebf;" parent="1" vertex="1">
          <mxGeometry x="870" y="240" width="80" height="40" as="geometry" />
        </mxCell>
        <mxCell id="OuveFojcmuEkYfxnia5m-19" value="size&lt;br&gt;" style="ellipse;whiteSpace=wrap;html=1;fillColor=#dae8fc;strokeColor=#6c8ebf;" parent="1" vertex="1">
          <mxGeometry x="880" y="300" width="80" height="40" as="geometry" />
        </mxCell>
        <mxCell id="OuveFojcmuEkYfxnia5m-20" value="donvi" style="ellipse;whiteSpace=wrap;html=1;fillColor=#dae8fc;strokeColor=#6c8ebf;" parent="1" vertex="1">
          <mxGeometry x="870" y="360" width="80" height="40" as="geometry" />
        </mxCell>
        <mxCell id="OuveFojcmuEkYfxnia5m-21" value="discription&lt;br&gt;" style="ellipse;whiteSpace=wrap;html=1;fillColor=#dae8fc;strokeColor=#6c8ebf;" parent="1" vertex="1">
          <mxGeometry x="780" y="400" width="80" height="50" as="geometry" />
        </mxCell>
        <mxCell id="OuveFojcmuEkYfxnia5m-23" value="Promotion" style="rounded=1;whiteSpace=wrap;html=1;fillColor=#fff2cc;strokeColor=#d6b656;" parent="1" vertex="1">
          <mxGeometry x="380" y="510" width="120" height="60" as="geometry" />
        </mxCell>
        <mxCell id="OuveFojcmuEkYfxnia5m-24" value="id" style="ellipse;whiteSpace=wrap;html=1;fillColor=#dae8fc;strokeColor=#6c8ebf;" parent="1" vertex="1">
          <mxGeometry x="220" y="500" width="80" height="40" as="geometry" />
        </mxCell>
        <mxCell id="OuveFojcmuEkYfxnia5m-25" value="date start" style="ellipse;whiteSpace=wrap;html=1;fillColor=#dae8fc;strokeColor=#6c8ebf;" parent="1" vertex="1">
          <mxGeometry x="270" y="570" width="80" height="40" as="geometry" />
        </mxCell>
        <mxCell id="OuveFojcmuEkYfxnia5m-26" value="dateEnd&amp;nbsp;" style="ellipse;whiteSpace=wrap;html=1;fillColor=#dae8fc;strokeColor=#6c8ebf;" parent="1" vertex="1">
          <mxGeometry x="380" y="590" width="80" height="40" as="geometry" />
        </mxCell>
        <mxCell id="OuveFojcmuEkYfxnia5m-28" value="amount" style="ellipse;whiteSpace=wrap;html=1;fillColor=#dae8fc;strokeColor=#6c8ebf;" parent="1" vertex="1">
          <mxGeometry x="470" y="600" width="80" height="50" as="geometry" />
        </mxCell>
        <mxCell id="OuveFojcmuEkYfxnia5m-29" value="Price" style="rounded=1;whiteSpace=wrap;html=1;fillColor=#fff2cc;strokeColor=#d6b656;" parent="1" vertex="1">
          <mxGeometry x="700" y="530" width="120" height="60" as="geometry" />
        </mxCell>
        <mxCell id="OuveFojcmuEkYfxnia5m-30" value="id" style="ellipse;whiteSpace=wrap;html=1;fillColor=#dae8fc;strokeColor=#6c8ebf;" parent="1" vertex="1">
          <mxGeometry x="860" y="500" width="80" height="40" as="geometry" />
        </mxCell>
        <mxCell id="OuveFojcmuEkYfxnia5m-31" value="unitPrice" style="ellipse;whiteSpace=wrap;html=1;fillColor=#dae8fc;strokeColor=#6c8ebf;" parent="1" vertex="1">
          <mxGeometry x="870" y="565" width="80" height="40" as="geometry" />
        </mxCell>
        <mxCell id="OuveFojcmuEkYfxnia5m-32" value="wholePrice" style="ellipse;whiteSpace=wrap;html=1;fillColor=#dae8fc;strokeColor=#6c8ebf;" parent="1" vertex="1">
          <mxGeometry x="810" y="600" width="80" height="40" as="geometry" />
        </mxCell>
        <mxCell id="OuveFojcmuEkYfxnia5m-33" value="importPrice" style="ellipse;whiteSpace=wrap;html=1;fillColor=#dae8fc;strokeColor=#6c8ebf;" parent="1" vertex="1">
          <mxGeometry x="710" y="620" width="80" height="40" as="geometry" />
        </mxCell>
        <mxCell id="OuveFojcmuEkYfxnia5m-34" value="oldPrice" style="ellipse;whiteSpace=wrap;html=1;fillColor=#dae8fc;strokeColor=#6c8ebf;" parent="1" vertex="1">
          <mxGeometry x="620" y="620" width="80" height="40" as="geometry" />
        </mxCell>
        <mxCell id="OuveFojcmuEkYfxnia5m-36" value="discount" style="ellipse;whiteSpace=wrap;html=1;fillColor=#dae8fc;strokeColor=#6c8ebf;" parent="1" vertex="1">
          <mxGeometry x="570" y="530" width="80" height="40" as="geometry" />
        </mxCell>
        <mxCell id="OuveFojcmuEkYfxnia5m-38" value="user" style="rounded=1;whiteSpace=wrap;html=1;fillColor=#fff2cc;strokeColor=#d6b656;" parent="1" vertex="1">
          <mxGeometry x="480" y="40" width="120" height="60" as="geometry" />
        </mxCell>
        <mxCell id="OuveFojcmuEkYfxnia5m-39" value="id" style="ellipse;whiteSpace=wrap;html=1;fillColor=#dae8fc;strokeColor=#6c8ebf;" parent="1" vertex="1">
          <mxGeometry x="310" y="-160" width="80" height="40" as="geometry" />
        </mxCell>
        <mxCell id="OuveFojcmuEkYfxnia5m-40" value="userName" style="ellipse;whiteSpace=wrap;html=1;fillColor=#dae8fc;strokeColor=#6c8ebf;" parent="1" vertex="1">
          <mxGeometry x="430" y="-180" width="80" height="40" as="geometry" />
        </mxCell>
        <mxCell id="OuveFojcmuEkYfxnia5m-41" value="email" style="ellipse;whiteSpace=wrap;html=1;fillColor=#dae8fc;strokeColor=#6c8ebf;" parent="1" vertex="1">
          <mxGeometry x="520" y="-180" width="80" height="40" as="geometry" />
        </mxCell>
        <mxCell id="OuveFojcmuEkYfxnia5m-42" value="fistName" style="ellipse;whiteSpace=wrap;html=1;fillColor=#dae8fc;strokeColor=#6c8ebf;" parent="1" vertex="1">
          <mxGeometry x="610" y="-150" width="80" height="40" as="geometry" />
        </mxCell>
        <mxCell id="OuveFojcmuEkYfxnia5m-43" value="lasName" style="ellipse;whiteSpace=wrap;html=1;fillColor=#dae8fc;strokeColor=#6c8ebf;" parent="1" vertex="1">
          <mxGeometry x="690" y="-50" width="80" height="40" as="geometry" />
        </mxCell>
        <mxCell id="OuveFojcmuEkYfxnia5m-45" value="Adress" style="ellipse;whiteSpace=wrap;html=1;fillColor=#dae8fc;strokeColor=#6c8ebf;" parent="1" vertex="1">
          <mxGeometry x="630" y="-100" width="80" height="40" as="geometry" />
        </mxCell>
        <mxCell id="OuveFojcmuEkYfxnia5m-47" value="province" style="ellipse;whiteSpace=wrap;html=1;fillColor=#dae8fc;strokeColor=#6c8ebf;" parent="1" vertex="1">
          <mxGeometry x="680" y="20" width="80" height="40" as="geometry" />
        </mxCell>
        <mxCell id="OuveFojcmuEkYfxnia5m-48" value="district" style="ellipse;whiteSpace=wrap;html=1;fillColor=#dae8fc;strokeColor=#6c8ebf;" parent="1" vertex="1">
          <mxGeometry x="280" y="-110" width="80" height="40" as="geometry" />
        </mxCell>
        <mxCell id="OuveFojcmuEkYfxnia5m-49" value="phone" style="ellipse;whiteSpace=wrap;html=1;fillColor=#dae8fc;strokeColor=#6c8ebf;" parent="1" vertex="1">
          <mxGeometry x="260" y="-60" width="80" height="40" as="geometry" />
        </mxCell>
        <mxCell id="OuveFojcmuEkYfxnia5m-50" value="role" style="ellipse;whiteSpace=wrap;html=1;fillColor=#dae8fc;strokeColor=#6c8ebf;" parent="1" vertex="1">
          <mxGeometry x="260" width="80" height="40" as="geometry" />
        </mxCell>
        <mxCell id="OuveFojcmuEkYfxnia5m-52" value="identification" style="ellipse;whiteSpace=wrap;html=1;fillColor=#dae8fc;strokeColor=#6c8ebf;" parent="1" vertex="1">
          <mxGeometry x="270" y="50" width="80" height="40" as="geometry" />
        </mxCell>
        <mxCell id="OuveFojcmuEkYfxnia5m-53" value="pass&lt;br&gt;" style="ellipse;whiteSpace=wrap;html=1;fillColor=#dae8fc;strokeColor=#6c8ebf;" parent="1" vertex="1">
          <mxGeometry x="340" y="70" width="80" height="30" as="geometry" />
        </mxCell>
        <mxCell id="OuveFojcmuEkYfxnia5m-55" value="Cart" style="rounded=1;whiteSpace=wrap;html=1;fillColor=#fff2cc;strokeColor=#d6b656;" parent="1" vertex="1">
          <mxGeometry x="1010" y="20" width="120" height="60" as="geometry" />
        </mxCell>
        <mxCell id="OuveFojcmuEkYfxnia5m-56" value="DateCreat" style="ellipse;whiteSpace=wrap;html=1;fillColor=#dae8fc;strokeColor=#6c8ebf;" parent="1" vertex="1">
          <mxGeometry x="940" y="-240" width="80" height="40" as="geometry" />
        </mxCell>
        <mxCell id="OuveFojcmuEkYfxnia5m-57" value="id" style="ellipse;whiteSpace=wrap;html=1;fillColor=#dae8fc;strokeColor=#6c8ebf;" parent="1" vertex="1">
          <mxGeometry x="850" y="-170" width="80" height="40" as="geometry" />
        </mxCell>
        <mxCell id="OuveFojcmuEkYfxnia5m-58" value="totalPrice" style="ellipse;whiteSpace=wrap;html=1;fillColor=#dae8fc;strokeColor=#6c8ebf;" parent="1" vertex="1">
          <mxGeometry x="1070" y="-230" width="80" height="40" as="geometry" />
        </mxCell>
        <mxCell id="OuveFojcmuEkYfxnia5m-59" value="feeShip" style="ellipse;whiteSpace=wrap;html=1;fillColor=#dae8fc;strokeColor=#6c8ebf;" parent="1" vertex="1">
          <mxGeometry x="1140" y="-170" width="80" height="40" as="geometry" />
        </mxCell>
        <mxCell id="OuveFojcmuEkYfxnia5m-60" value="status" style="ellipse;whiteSpace=wrap;html=1;fillColor=#dae8fc;strokeColor=#6c8ebf;" parent="1" vertex="1">
          <mxGeometry x="1150" y="-100" width="80" height="40" as="geometry" />
        </mxCell>
        <mxCell id="OuveFojcmuEkYfxnia5m-61" value="fistName" style="ellipse;whiteSpace=wrap;html=1;fillColor=#dae8fc;strokeColor=#6c8ebf;" parent="1" vertex="1">
          <mxGeometry x="850" y="-100" width="80" height="40" as="geometry" />
        </mxCell>
        <mxCell id="OuveFojcmuEkYfxnia5m-62" value="lastName" style="ellipse;whiteSpace=wrap;html=1;fillColor=#dae8fc;strokeColor=#6c8ebf;" parent="1" vertex="1">
          <mxGeometry x="860" y="-40" width="80" height="40" as="geometry" />
        </mxCell>
        <mxCell id="OuveFojcmuEkYfxnia5m-63" value="email" style="ellipse;whiteSpace=wrap;html=1;fillColor=#dae8fc;strokeColor=#6c8ebf;" parent="1" vertex="1">
          <mxGeometry x="1230" y="-30" width="80" height="40" as="geometry" />
        </mxCell>
        <mxCell id="OuveFojcmuEkYfxnia5m-64" value="address" style="ellipse;whiteSpace=wrap;html=1;fillColor=#dae8fc;strokeColor=#6c8ebf;" parent="1" vertex="1">
          <mxGeometry x="1210" y="40" width="80" height="40" as="geometry" />
        </mxCell>
        <mxCell id="OuveFojcmuEkYfxnia5m-65" value="ctity" style="ellipse;whiteSpace=wrap;html=1;fillColor=#dae8fc;strokeColor=#6c8ebf;" parent="1" vertex="1">
          <mxGeometry x="1170" y="100" width="80" height="40" as="geometry" />
        </mxCell>
        <mxCell id="OuveFojcmuEkYfxnia5m-66" value="telephone" style="ellipse;whiteSpace=wrap;html=1;fillColor=#dae8fc;strokeColor=#6c8ebf;" parent="1" vertex="1">
          <mxGeometry x="1000" y="150" width="80" height="40" as="geometry" />
        </mxCell>
        <mxCell id="OuveFojcmuEkYfxnia5m-67" value="CartItiem&lt;br&gt;" style="rounded=1;whiteSpace=wrap;html=1;fillColor=#fff2cc;strokeColor=#d6b656;" parent="1" vertex="1">
          <mxGeometry x="1190" y="260" width="120" height="60" as="geometry" />
        </mxCell>
        <mxCell id="OuveFojcmuEkYfxnia5m-68" value="id" style="ellipse;whiteSpace=wrap;html=1;fillColor=#dae8fc;strokeColor=#6c8ebf;" parent="1" vertex="1">
          <mxGeometry x="1280" y="190" width="80" height="40" as="geometry" />
        </mxCell>
        <mxCell id="OuveFojcmuEkYfxnia5m-69" value="amount" style="ellipse;whiteSpace=wrap;html=1;fillColor=#dae8fc;strokeColor=#6c8ebf;" parent="1" vertex="1">
          <mxGeometry x="1330" y="260" width="80" height="40" as="geometry" />
        </mxCell>
        <mxCell id="OuveFojcmuEkYfxnia5m-70" value="size" style="ellipse;whiteSpace=wrap;html=1;fillColor=#dae8fc;strokeColor=#6c8ebf;" parent="1" vertex="1">
          <mxGeometry x="1350" y="350" width="80" height="40" as="geometry" />
        </mxCell>
        <mxCell id="OuveFojcmuEkYfxnia5m-71" value="image" style="ellipse;whiteSpace=wrap;html=1;fillColor=#dae8fc;strokeColor=#6c8ebf;" parent="1" vertex="1">
          <mxGeometry x="1310" y="410" width="80" height="40" as="geometry" />
        </mxCell>
        <mxCell id="OuveFojcmuEkYfxnia5m-73" value="color" style="ellipse;whiteSpace=wrap;html=1;fillColor=#dae8fc;strokeColor=#6c8ebf;" parent="1" vertex="1">
          <mxGeometry x="1210" y="420" width="80" height="40" as="geometry" />
        </mxCell>
        <mxCell id="OuveFojcmuEkYfxnia5m-75" value="price" style="ellipse;whiteSpace=wrap;html=1;fillColor=#dae8fc;strokeColor=#6c8ebf;" parent="1" vertex="1">
          <mxGeometry x="1120" y="430" width="80" height="40" as="geometry" />
        </mxCell>
        <mxCell id="OuveFojcmuEkYfxnia5m-76" value="totalPriceItem&lt;br&gt;" style="ellipse;whiteSpace=wrap;html=1;fillColor=#dae8fc;strokeColor=#6c8ebf;" parent="1" vertex="1">
          <mxGeometry x="1040" y="370" width="80" height="40" as="geometry" />
        </mxCell>
        <mxCell id="OuveFojcmuEkYfxnia5m-81" value="" style="endArrow=none;html=1;" parent="1" source="OuveFojcmuEkYfxnia5m-53" target="OuveFojcmuEkYfxnia5m-38" edge="1">
          <mxGeometry width="50" height="50" relative="1" as="geometry">
            <mxPoint x="750" y="100" as="sourcePoint" />
            <mxPoint x="800" y="50" as="targetPoint" />
          </mxGeometry>
        </mxCell>
        <mxCell id="OuveFojcmuEkYfxnia5m-82" value="" style="endArrow=none;html=1;" parent="1" source="OuveFojcmuEkYfxnia5m-52" target="OuveFojcmuEkYfxnia5m-38" edge="1">
          <mxGeometry width="50" height="50" relative="1" as="geometry">
            <mxPoint x="403.52794904653365" y="80.88387925579082" as="sourcePoint" />
            <mxPoint x="471.304347826087" y="10" as="targetPoint" />
          </mxGeometry>
        </mxCell>
        <mxCell id="OuveFojcmuEkYfxnia5m-83" value="" style="endArrow=none;html=1;" parent="1" source="OuveFojcmuEkYfxnia5m-50" target="OuveFojcmuEkYfxnia5m-38" edge="1">
          <mxGeometry width="50" height="50" relative="1" as="geometry">
            <mxPoint x="413.52794904653365" y="90.88387925579082" as="sourcePoint" />
            <mxPoint x="481.304347826087" y="20" as="targetPoint" />
          </mxGeometry>
        </mxCell>
        <mxCell id="OuveFojcmuEkYfxnia5m-84" value="" style="endArrow=none;html=1;entryX=0;entryY=0.25;entryDx=0;entryDy=0;" parent="1" source="OuveFojcmuEkYfxnia5m-49" target="OuveFojcmuEkYfxnia5m-38" edge="1">
          <mxGeometry width="50" height="50" relative="1" as="geometry">
            <mxPoint x="345.38276401941357" y="20.67181675851839" as="sourcePoint" />
            <mxPoint x="440" y="-4.210526315789366" as="targetPoint" />
          </mxGeometry>
        </mxCell>
        <mxCell id="OuveFojcmuEkYfxnia5m-85" value="" style="endArrow=none;html=1;entryX=0.102;entryY=-0.009;entryDx=0;entryDy=0;entryPerimeter=0;" parent="1" source="OuveFojcmuEkYfxnia5m-48" target="OuveFojcmuEkYfxnia5m-38" edge="1">
          <mxGeometry width="50" height="50" relative="1" as="geometry">
            <mxPoint x="349.89463267834776" y="-31.45071391557599" as="sourcePoint" />
            <mxPoint x="440" y="-35" as="targetPoint" />
          </mxGeometry>
        </mxCell>
        <mxCell id="OuveFojcmuEkYfxnia5m-86" value="" style="endArrow=none;html=1;entryX=0.25;entryY=0;entryDx=0;entryDy=0;" parent="1" source="OuveFojcmuEkYfxnia5m-39" target="OuveFojcmuEkYfxnia5m-38" edge="1">
          <mxGeometry width="50" height="50" relative="1" as="geometry">
            <mxPoint x="365.9842482554652" y="-71.26595916129486" as="sourcePoint" />
            <mxPoint x="452.24" y="-50.539999999999964" as="targetPoint" />
          </mxGeometry>
        </mxCell>
        <mxCell id="OuveFojcmuEkYfxnia5m-87" value="" style="endArrow=none;html=1;entryX=0.436;entryY=-0.028;entryDx=0;entryDy=0;entryPerimeter=0;" parent="1" source="OuveFojcmuEkYfxnia5m-40" target="OuveFojcmuEkYfxnia5m-38" edge="1">
          <mxGeometry width="50" height="50" relative="1" as="geometry">
            <mxPoint x="382.57865236141583" y="-113.49087784326548" as="sourcePoint" />
            <mxPoint x="470" y="-50" as="targetPoint" />
          </mxGeometry>
        </mxCell>
        <mxCell id="OuveFojcmuEkYfxnia5m-88" value="" style="endArrow=none;html=1;entryX=0.75;entryY=0;entryDx=0;entryDy=0;exitX=0.249;exitY=1.046;exitDx=0;exitDy=0;exitPerimeter=0;" parent="1" source="OuveFojcmuEkYfxnia5m-41" target="OuveFojcmuEkYfxnia5m-38" edge="1">
          <mxGeometry width="50" height="50" relative="1" as="geometry">
            <mxPoint x="482.4052781610121" y="-130.03619126359763" as="sourcePoint" />
            <mxPoint x="492.31999999999994" y="-51.680000000000064" as="targetPoint" />
          </mxGeometry>
        </mxCell>
        <mxCell id="OuveFojcmuEkYfxnia5m-89" value="" style="endArrow=none;html=1;entryX=0.5;entryY=0;entryDx=0;entryDy=0;" parent="1" source="OuveFojcmuEkYfxnia5m-42" edge="1" target="OuveFojcmuEkYfxnia5m-38">
          <mxGeometry width="50" height="50" relative="1" as="geometry">
            <mxPoint x="549.9200000000001" y="-128.15999999999985" as="sourcePoint" />
            <mxPoint x="550" y="-60" as="targetPoint" />
          </mxGeometry>
        </mxCell>
        <mxCell id="OuveFojcmuEkYfxnia5m-90" value="" style="endArrow=none;html=1;entryX=1.024;entryY=0.128;entryDx=0;entryDy=0;entryPerimeter=0;" parent="1" source="OuveFojcmuEkYfxnia5m-43" target="OuveFojcmuEkYfxnia5m-38" edge="1">
          <mxGeometry width="50" height="50" relative="1" as="geometry">
            <mxPoint x="636.6205657063126" y="-103.77192207849953" as="sourcePoint" />
            <mxPoint x="560" y="-50" as="targetPoint" />
          </mxGeometry>
        </mxCell>
        <mxCell id="OuveFojcmuEkYfxnia5m-91" value="" style="endArrow=none;html=1;exitX=0;exitY=0.5;exitDx=0;exitDy=0;" parent="1" source="OuveFojcmuEkYfxnia5m-45" target="OuveFojcmuEkYfxnia5m-38" edge="1">
          <mxGeometry width="50" height="50" relative="1" as="geometry">
            <mxPoint x="634.3017142422777" y="-60.977356346949136" as="sourcePoint" />
            <mxPoint x="562.8800000000001" y="-42.319999999999936" as="targetPoint" />
          </mxGeometry>
        </mxCell>
        <mxCell id="OuveFojcmuEkYfxnia5m-92" value="" style="endArrow=none;html=1;" parent="1" source="OuveFojcmuEkYfxnia5m-47" target="OuveFojcmuEkYfxnia5m-38" edge="1">
          <mxGeometry width="50" height="50" relative="1" as="geometry">
            <mxPoint x="640" y="-10" as="sourcePoint" />
            <mxPoint x="560" y="-15.714285714285552" as="targetPoint" />
          </mxGeometry>
        </mxCell>
        <mxCell id="OuveFojcmuEkYfxnia5m-93" value="" style="endArrow=none;html=1;exitX=1;exitY=0;exitDx=0;exitDy=0;" parent="1" source="OuveFojcmuEkYfxnia5m-12" target="OuveFojcmuEkYfxnia5m-3" edge="1">
          <mxGeometry width="50" height="50" relative="1" as="geometry">
            <mxPoint x="403.52794904653365" y="80.88387925579082" as="sourcePoint" />
            <mxPoint x="471.304347826087" y="10" as="targetPoint" />
          </mxGeometry>
        </mxCell>
        <mxCell id="OuveFojcmuEkYfxnia5m-94" value="" style="endArrow=none;html=1;exitX=1;exitY=0;exitDx=0;exitDy=0;" parent="1" source="OuveFojcmuEkYfxnia5m-8" target="OuveFojcmuEkYfxnia5m-3" edge="1">
          <mxGeometry width="50" height="50" relative="1" as="geometry">
            <mxPoint x="308.28427124746213" y="405.85786437626894" as="sourcePoint" />
            <mxPoint x="391.07255618236104" y="320" as="targetPoint" />
          </mxGeometry>
        </mxCell>
        <mxCell id="OuveFojcmuEkYfxnia5m-95" value="" style="endArrow=none;html=1;exitX=0.963;exitY=0.737;exitDx=0;exitDy=0;exitPerimeter=0;entryX=0;entryY=0.75;entryDx=0;entryDy=0;" parent="1" source="OuveFojcmuEkYfxnia5m-7" target="OuveFojcmuEkYfxnia5m-3" edge="1">
          <mxGeometry width="50" height="50" relative="1" as="geometry">
            <mxPoint x="308.28427124746213" y="335.85786437626894" as="sourcePoint" />
            <mxPoint x="360" y="314.6292253857191" as="targetPoint" />
          </mxGeometry>
        </mxCell>
        <mxCell id="OuveFojcmuEkYfxnia5m-96" value="" style="endArrow=none;html=1;exitX=1;exitY=0.5;exitDx=0;exitDy=0;" parent="1" source="OuveFojcmuEkYfxnia5m-5" target="OuveFojcmuEkYfxnia5m-3" edge="1">
          <mxGeometry width="50" height="50" relative="1" as="geometry">
            <mxPoint x="317.03999999999996" y="309.48" as="sourcePoint" />
            <mxPoint x="360" y="305" as="targetPoint" />
          </mxGeometry>
        </mxCell>
        <mxCell id="OuveFojcmuEkYfxnia5m-97" value="" style="endArrow=none;html=1;entryX=0.112;entryY=-0.038;entryDx=0;entryDy=0;entryPerimeter=0;" parent="1" source="OuveFojcmuEkYfxnia5m-4" target="OuveFojcmuEkYfxnia5m-3" edge="1">
          <mxGeometry width="50" height="50" relative="1" as="geometry">
            <mxPoint x="320" y="250" as="sourcePoint" />
            <mxPoint x="360" y="266" as="targetPoint" />
          </mxGeometry>
        </mxCell>
        <mxCell id="OuveFojcmuEkYfxnia5m-98" value="" style="endArrow=none;html=1;entryX=0.338;entryY=0.001;entryDx=0;entryDy=0;entryPerimeter=0;" parent="1" source="OuveFojcmuEkYfxnia5m-6" target="OuveFojcmuEkYfxnia5m-3" edge="1">
          <mxGeometry width="50" height="50" relative="1" as="geometry">
            <mxPoint x="319.11087787639485" y="207.5696780476535" as="sourcePoint" />
            <mxPoint x="373.44000000000005" y="257.72" as="targetPoint" />
          </mxGeometry>
        </mxCell>
        <mxCell id="OuveFojcmuEkYfxnia5m-99" value="" style="endArrow=none;html=1;" parent="1" source="OuveFojcmuEkYfxnia5m-9" target="OuveFojcmuEkYfxnia5m-3" edge="1">
          <mxGeometry width="50" height="50" relative="1" as="geometry">
            <mxPoint x="392.34888087814284" y="199.96548746421558" as="sourcePoint" />
            <mxPoint x="400.55999999999995" y="260.05999999999995" as="targetPoint" />
          </mxGeometry>
        </mxCell>
        <mxCell id="OuveFojcmuEkYfxnia5m-100" value="" style="endArrow=none;html=1;entryX=1;entryY=0.25;entryDx=0;entryDy=0;" parent="1" source="OuveFojcmuEkYfxnia5m-10" target="OuveFojcmuEkYfxnia5m-3" edge="1">
          <mxGeometry width="50" height="50" relative="1" as="geometry">
            <mxPoint x="475.71450134935253" y="218.68103669700054" as="sourcePoint" />
            <mxPoint x="443.33333333333326" y="260" as="targetPoint" />
          </mxGeometry>
        </mxCell>
        <mxCell id="OuveFojcmuEkYfxnia5m-101" value="" style="endArrow=none;html=1;entryX=1;entryY=0.5;entryDx=0;entryDy=0;exitX=0;exitY=1;exitDx=0;exitDy=0;" parent="1" source="OuveFojcmuEkYfxnia5m-11" target="OuveFojcmuEkYfxnia5m-3" edge="1">
          <mxGeometry width="50" height="50" relative="1" as="geometry">
            <mxPoint x="521.475024719477" y="254.0207505616131" as="sourcePoint" />
            <mxPoint x="480" y="275" as="targetPoint" />
          </mxGeometry>
        </mxCell>
        <mxCell id="OuveFojcmuEkYfxnia5m-102" value="" style="endArrow=none;html=1;entryX=0.25;entryY=0;entryDx=0;entryDy=0;" parent="1" source="OuveFojcmuEkYfxnia5m-15" target="OuveFojcmuEkYfxnia5m-14" edge="1">
          <mxGeometry width="50" height="50" relative="1" as="geometry">
            <mxPoint x="531.475024719477" y="264.0207505616131" as="sourcePoint" />
            <mxPoint x="490" y="285" as="targetPoint" />
          </mxGeometry>
        </mxCell>
        <mxCell id="OuveFojcmuEkYfxnia5m-103" value="" style="endArrow=none;html=1;entryX=0.5;entryY=0;entryDx=0;entryDy=0;" parent="1" source="OuveFojcmuEkYfxnia5m-16" target="OuveFojcmuEkYfxnia5m-14" edge="1">
          <mxGeometry width="50" height="50" relative="1" as="geometry">
            <mxPoint x="711.0748598137529" y="249.21813908857143" as="sourcePoint" />
            <mxPoint x="740" y="300" as="targetPoint" />
          </mxGeometry>
        </mxCell>
        <mxCell id="OuveFojcmuEkYfxnia5m-104" value="" style="endArrow=none;html=1;" parent="1" source="OuveFojcmuEkYfxnia5m-17" target="OuveFojcmuEkYfxnia5m-14" edge="1">
          <mxGeometry width="50" height="50" relative="1" as="geometry">
            <mxPoint x="778.1197278697234" y="219.97789138419262" as="sourcePoint" />
            <mxPoint x="770" y="300" as="targetPoint" />
          </mxGeometry>
        </mxCell>
        <mxCell id="OuveFojcmuEkYfxnia5m-105" value="" style="endArrow=none;html=1;exitX=0;exitY=0.5;exitDx=0;exitDy=0;entryX=1;entryY=0;entryDx=0;entryDy=0;" parent="1" source="OuveFojcmuEkYfxnia5m-18" target="OuveFojcmuEkYfxnia5m-14" edge="1">
          <mxGeometry width="50" height="50" relative="1" as="geometry">
            <mxPoint x="859.5360765450471" y="237.9931332566182" as="sourcePoint" />
            <mxPoint x="799.181818181818" y="300" as="targetPoint" />
          </mxGeometry>
        </mxCell>
        <mxCell id="OuveFojcmuEkYfxnia5m-106" value="" style="endArrow=none;html=1;entryX=1;entryY=0.25;entryDx=0;entryDy=0;" parent="1" source="OuveFojcmuEkYfxnia5m-19" target="OuveFojcmuEkYfxnia5m-14" edge="1">
          <mxGeometry width="50" height="50" relative="1" as="geometry">
            <mxPoint x="880" y="270" as="sourcePoint" />
            <mxPoint x="830" y="300" as="targetPoint" />
          </mxGeometry>
        </mxCell>
        <mxCell id="OuveFojcmuEkYfxnia5m-107" value="" style="endArrow=none;html=1;" parent="1" source="OuveFojcmuEkYfxnia5m-20" target="OuveFojcmuEkYfxnia5m-14" edge="1">
          <mxGeometry width="50" height="50" relative="1" as="geometry">
            <mxPoint x="891.5050483850932" y="324.5654185955427" as="sourcePoint" />
            <mxPoint x="830" y="315" as="targetPoint" />
          </mxGeometry>
        </mxCell>
        <mxCell id="OuveFojcmuEkYfxnia5m-108" value="" style="endArrow=none;html=1;" parent="1" source="OuveFojcmuEkYfxnia5m-21" target="OuveFojcmuEkYfxnia5m-14" edge="1">
          <mxGeometry width="50" height="50" relative="1" as="geometry">
            <mxPoint x="888.6046893786627" y="377.6071142284195" as="sourcePoint" />
            <mxPoint x="830" y="354" as="targetPoint" />
          </mxGeometry>
        </mxCell>
        <mxCell id="OuveFojcmuEkYfxnia5m-109" value="" style="endArrow=none;html=1;exitX=1;exitY=0.5;exitDx=0;exitDy=0;" parent="1" source="OuveFojcmuEkYfxnia5m-24" target="OuveFojcmuEkYfxnia5m-23" edge="1">
          <mxGeometry width="50" height="50" relative="1" as="geometry">
            <mxPoint x="308.28427124746213" y="405.85786437626894" as="sourcePoint" />
            <mxPoint x="391.07255618236104" y="320" as="targetPoint" />
          </mxGeometry>
        </mxCell>
        <mxCell id="OuveFojcmuEkYfxnia5m-111" value="" style="endArrow=none;html=1;entryX=0;entryY=1;entryDx=0;entryDy=0;" parent="1" source="OuveFojcmuEkYfxnia5m-25" target="OuveFojcmuEkYfxnia5m-23" edge="1">
          <mxGeometry width="50" height="50" relative="1" as="geometry">
            <mxPoint x="310.0000000000032" y="530" as="sourcePoint" />
            <mxPoint x="390" y="541.4285714285716" as="targetPoint" />
          </mxGeometry>
        </mxCell>
        <mxCell id="OuveFojcmuEkYfxnia5m-112" value="" style="endArrow=none;html=1;" parent="1" source="OuveFojcmuEkYfxnia5m-26" target="OuveFojcmuEkYfxnia5m-23" edge="1">
          <mxGeometry width="50" height="50" relative="1" as="geometry">
            <mxPoint x="354.65719859867204" y="590.0140275224171" as="sourcePoint" />
            <mxPoint x="390" y="580" as="targetPoint" />
          </mxGeometry>
        </mxCell>
        <mxCell id="OuveFojcmuEkYfxnia5m-113" value="" style="endArrow=none;html=1;entryX=0.75;entryY=1;entryDx=0;entryDy=0;exitX=0.5;exitY=0;exitDx=0;exitDy=0;" parent="1" source="OuveFojcmuEkYfxnia5m-28" target="OuveFojcmuEkYfxnia5m-23" edge="1">
          <mxGeometry width="50" height="50" relative="1" as="geometry">
            <mxPoint x="435.2483487610882" y="600.1729046803334" as="sourcePoint" />
            <mxPoint x="441.42857142857156" y="580" as="targetPoint" />
          </mxGeometry>
        </mxCell>
        <mxCell id="OuveFojcmuEkYfxnia5m-115" value="" style="endArrow=none;html=1;" parent="1" source="OuveFojcmuEkYfxnia5m-29" target="OuveFojcmuEkYfxnia5m-36" edge="1">
          <mxGeometry width="50" height="50" relative="1" as="geometry">
            <mxPoint x="520" y="610" as="sourcePoint" />
            <mxPoint x="480" y="580" as="targetPoint" />
          </mxGeometry>
        </mxCell>
        <mxCell id="OuveFojcmuEkYfxnia5m-117" value="" style="endArrow=none;html=1;entryX=0.955;entryY=0.178;entryDx=0;entryDy=0;entryPerimeter=0;" parent="1" source="OuveFojcmuEkYfxnia5m-67" target="OuveFojcmuEkYfxnia5m-76" edge="1">
          <mxGeometry width="50" height="50" relative="1" as="geometry">
            <mxPoint x="710" y="565.9206831780448" as="sourcePoint" />
            <mxPoint x="659.6862888890566" y="562.4999237095471" as="targetPoint" />
          </mxGeometry>
        </mxCell>
        <mxCell id="OuveFojcmuEkYfxnia5m-118" value="" style="endArrow=none;html=1;entryX=1;entryY=0;entryDx=0;entryDy=0;" parent="1" source="OuveFojcmuEkYfxnia5m-29" target="OuveFojcmuEkYfxnia5m-34" edge="1">
          <mxGeometry width="50" height="50" relative="1" as="geometry">
            <mxPoint x="718.1599999999999" y="601.2600000000002" as="sourcePoint" />
            <mxPoint x="687.5369452808504" y="632.024631087128" as="targetPoint" />
          </mxGeometry>
        </mxCell>
        <mxCell id="OuveFojcmuEkYfxnia5m-119" value="" style="endArrow=none;html=1;exitX=1;exitY=0.25;exitDx=0;exitDy=0;entryX=0;entryY=0;entryDx=0;entryDy=0;" parent="1" source="OuveFojcmuEkYfxnia5m-29" target="OuveFojcmuEkYfxnia5m-30" edge="1">
          <mxGeometry width="50" height="50" relative="1" as="geometry">
            <mxPoint x="728.1599999999999" y="611.2600000000002" as="sourcePoint" />
            <mxPoint x="697.5369452808504" y="642.024631087128" as="targetPoint" />
          </mxGeometry>
        </mxCell>
        <mxCell id="OuveFojcmuEkYfxnia5m-120" value="" style="endArrow=none;html=1;exitX=1;exitY=0.5;exitDx=0;exitDy=0;entryX=0;entryY=0;entryDx=0;entryDy=0;" parent="1" source="OuveFojcmuEkYfxnia5m-29" target="OuveFojcmuEkYfxnia5m-31" edge="1">
          <mxGeometry width="50" height="50" relative="1" as="geometry">
            <mxPoint x="738.1599999999999" y="621.2600000000002" as="sourcePoint" />
            <mxPoint x="707.5369452808504" y="652.024631087128" as="targetPoint" />
          </mxGeometry>
        </mxCell>
        <mxCell id="OuveFojcmuEkYfxnia5m-121" value="" style="endArrow=none;html=1;" parent="1" source="OuveFojcmuEkYfxnia5m-29" target="OuveFojcmuEkYfxnia5m-32" edge="1">
          <mxGeometry width="50" height="50" relative="1" as="geometry">
            <mxPoint x="748.1599999999999" y="631.2600000000002" as="sourcePoint" />
            <mxPoint x="717.5369452808504" y="662.024631087128" as="targetPoint" />
          </mxGeometry>
        </mxCell>
        <mxCell id="OuveFojcmuEkYfxnia5m-122" value="" style="endArrow=none;html=1;" parent="1" source="OuveFojcmuEkYfxnia5m-29" target="OuveFojcmuEkYfxnia5m-33" edge="1">
          <mxGeometry width="50" height="50" relative="1" as="geometry">
            <mxPoint x="758.1599999999999" y="641.2600000000002" as="sourcePoint" />
            <mxPoint x="727.5369452808504" y="672.024631087128" as="targetPoint" />
          </mxGeometry>
        </mxCell>
        <mxCell id="OuveFojcmuEkYfxnia5m-123" value="" style="endArrow=none;html=1;entryX=0.5;entryY=0;entryDx=0;entryDy=0;" parent="1" source="OuveFojcmuEkYfxnia5m-67" target="OuveFojcmuEkYfxnia5m-75" edge="1">
          <mxGeometry width="50" height="50" relative="1" as="geometry">
            <mxPoint x="1213.9944903581268" y="330" as="sourcePoint" />
            <mxPoint x="1126.4" y="387.1199999999999" as="targetPoint" />
          </mxGeometry>
        </mxCell>
        <mxCell id="OuveFojcmuEkYfxnia5m-124" value="" style="endArrow=none;html=1;" parent="1" source="OuveFojcmuEkYfxnia5m-67" target="OuveFojcmuEkYfxnia5m-73" edge="1">
          <mxGeometry width="50" height="50" relative="1" as="geometry">
            <mxPoint x="1240.7142857142858" y="330" as="sourcePoint" />
            <mxPoint x="1170" y="440" as="targetPoint" />
          </mxGeometry>
        </mxCell>
        <mxCell id="OuveFojcmuEkYfxnia5m-125" value="" style="endArrow=none;html=1;" parent="1" source="OuveFojcmuEkYfxnia5m-67" target="OuveFojcmuEkYfxnia5m-71" edge="1">
          <mxGeometry width="50" height="50" relative="1" as="geometry">
            <mxPoint x="1260" y="330" as="sourcePoint" />
            <mxPoint x="1260" y="430" as="targetPoint" />
          </mxGeometry>
        </mxCell>
        <mxCell id="OuveFojcmuEkYfxnia5m-126" value="" style="endArrow=none;html=1;entryX=0;entryY=0;entryDx=0;entryDy=0;" parent="1" source="OuveFojcmuEkYfxnia5m-67" target="OuveFojcmuEkYfxnia5m-70" edge="1">
          <mxGeometry width="50" height="50" relative="1" as="geometry">
            <mxPoint x="1281.4678199470018" y="330" as="sourcePoint" />
            <mxPoint x="1346.6871952905776" y="421.1401933283191" as="targetPoint" />
          </mxGeometry>
        </mxCell>
        <mxCell id="OuveFojcmuEkYfxnia5m-127" value="" style="endArrow=none;html=1;exitX=1;exitY=0.5;exitDx=0;exitDy=0;" parent="1" source="OuveFojcmuEkYfxnia5m-67" target="OuveFojcmuEkYfxnia5m-69" edge="1">
          <mxGeometry width="50" height="50" relative="1" as="geometry">
            <mxPoint x="1310.8894707460904" y="330" as="sourcePoint" />
            <mxPoint x="1371.7157287525379" y="365.8578643762694" as="targetPoint" />
          </mxGeometry>
        </mxCell>
        <mxCell id="OuveFojcmuEkYfxnia5m-128" value="" style="endArrow=none;html=1;entryX=0.5;entryY=1;entryDx=0;entryDy=0;" parent="1" source="OuveFojcmuEkYfxnia5m-67" target="OuveFojcmuEkYfxnia5m-68" edge="1">
          <mxGeometry width="50" height="50" relative="1" as="geometry">
            <mxPoint x="1320.0000000000005" y="300" as="sourcePoint" />
            <mxPoint x="1341.9030341120283" y="296.0955145420753" as="targetPoint" />
          </mxGeometry>
        </mxCell>
        <mxCell id="OuveFojcmuEkYfxnia5m-129" value="" style="endArrow=none;html=1;" parent="1" source="OuveFojcmuEkYfxnia5m-55" target="OuveFojcmuEkYfxnia5m-65" edge="1">
          <mxGeometry width="50" height="50" relative="1" as="geometry">
            <mxPoint x="1295" y="270" as="sourcePoint" />
            <mxPoint x="1330.0000000000005" y="240" as="targetPoint" />
          </mxGeometry>
        </mxCell>
        <mxCell id="OuveFojcmuEkYfxnia5m-131" value="" style="endArrow=none;html=1;exitX=0;exitY=0.75;exitDx=0;exitDy=0;" parent="1" source="OuveFojcmuEkYfxnia5m-55" target="OuveFojcmuEkYfxnia5m-62" edge="1">
          <mxGeometry width="50" height="50" relative="1" as="geometry">
            <mxPoint x="640" y="-10" as="sourcePoint" />
            <mxPoint x="560" y="-15.714285714285552" as="targetPoint" />
          </mxGeometry>
        </mxCell>
        <mxCell id="OuveFojcmuEkYfxnia5m-132" value="" style="endArrow=none;html=1;" parent="1" source="OuveFojcmuEkYfxnia5m-55" target="OuveFojcmuEkYfxnia5m-61" edge="1">
          <mxGeometry width="50" height="50" relative="1" as="geometry">
            <mxPoint x="980" y="-75" as="sourcePoint" />
            <mxPoint x="928.9066393154658" y="-27.624833260179457" as="targetPoint" />
          </mxGeometry>
        </mxCell>
        <mxCell id="OuveFojcmuEkYfxnia5m-133" value="" style="endArrow=none;html=1;entryX=1;entryY=0.5;entryDx=0;entryDy=0;" parent="1" source="OuveFojcmuEkYfxnia5m-55" target="OuveFojcmuEkYfxnia5m-57" edge="1">
          <mxGeometry width="50" height="50" relative="1" as="geometry">
            <mxPoint x="980" y="-81.42857142857133" as="sourcePoint" />
            <mxPoint x="938.4609579056296" y="-75.49442255794702" as="targetPoint" />
          </mxGeometry>
        </mxCell>
        <mxCell id="OuveFojcmuEkYfxnia5m-134" value="" style="endArrow=none;html=1;exitX=0.25;exitY=0;exitDx=0;exitDy=0;" parent="1" source="OuveFojcmuEkYfxnia5m-55" target="OuveFojcmuEkYfxnia5m-56" edge="1">
          <mxGeometry width="50" height="50" relative="1" as="geometry">
            <mxPoint x="980.0000000000041" y="-120" as="sourcePoint" />
            <mxPoint x="940.0000000000064" y="-140" as="targetPoint" />
          </mxGeometry>
        </mxCell>
        <mxCell id="OuveFojcmuEkYfxnia5m-135" value="" style="endArrow=none;html=1;exitX=0.75;exitY=0;exitDx=0;exitDy=0;entryX=0;entryY=1;entryDx=0;entryDy=0;" parent="1" source="OuveFojcmuEkYfxnia5m-55" target="OuveFojcmuEkYfxnia5m-58" edge="1">
          <mxGeometry width="50" height="50" relative="1" as="geometry">
            <mxPoint x="1010" y="-120" as="sourcePoint" />
            <mxPoint x="994.4459641075746" y="-190.1239251661366" as="targetPoint" />
          </mxGeometry>
        </mxCell>
        <mxCell id="OuveFojcmuEkYfxnia5m-136" value="" style="endArrow=none;html=1;exitX=1;exitY=0.25;exitDx=0;exitDy=0;" parent="1" source="OuveFojcmuEkYfxnia5m-55" target="OuveFojcmuEkYfxnia5m-59" edge="1">
          <mxGeometry width="50" height="50" relative="1" as="geometry">
            <mxPoint x="1070" y="-120" as="sourcePoint" />
            <mxPoint x="1091.7157287525556" y="-185.8578643762778" as="targetPoint" />
          </mxGeometry>
        </mxCell>
        <mxCell id="OuveFojcmuEkYfxnia5m-137" value="" style="endArrow=none;html=1;entryX=0;entryY=0;entryDx=0;entryDy=0;" parent="1" source="OuveFojcmuEkYfxnia5m-55" target="OuveFojcmuEkYfxnia5m-60" edge="1">
          <mxGeometry width="50" height="50" relative="1" as="geometry">
            <mxPoint x="1100" y="-105" as="sourcePoint" />
            <mxPoint x="1158.2019501581926" y="-127.86653361299409" as="targetPoint" />
          </mxGeometry>
        </mxCell>
        <mxCell id="OuveFojcmuEkYfxnia5m-138" value="" style="endArrow=none;html=1;exitX=1;exitY=0.75;exitDx=0;exitDy=0;" parent="1" source="OuveFojcmuEkYfxnia5m-55" target="OuveFojcmuEkYfxnia5m-63" edge="1">
          <mxGeometry width="50" height="50" relative="1" as="geometry">
            <mxPoint x="1100" y="-87.33158776172831" as="sourcePoint" />
            <mxPoint x="1171.7157287525383" y="-84.14213562373084" as="targetPoint" />
          </mxGeometry>
        </mxCell>
        <mxCell id="OuveFojcmuEkYfxnia5m-139" value="" style="endArrow=none;html=1;entryX=0;entryY=0;entryDx=0;entryDy=0;" parent="1" source="OuveFojcmuEkYfxnia5m-55" target="OuveFojcmuEkYfxnia5m-64" edge="1">
          <mxGeometry width="50" height="50" relative="1" as="geometry">
            <mxPoint x="1100" y="-75" as="sourcePoint" />
            <mxPoint x="1249.1227905753062" y="-12.71414505722646" as="targetPoint" />
          </mxGeometry>
        </mxCell>
        <mxCell id="OuveFojcmuEkYfxnia5m-140" value="" style="endArrow=none;html=1;entryX=0.5;entryY=0;entryDx=0;entryDy=0;exitX=0.436;exitY=1.021;exitDx=0;exitDy=0;exitPerimeter=0;" parent="1" source="OuveFojcmuEkYfxnia5m-55" target="OuveFojcmuEkYfxnia5m-66" edge="1">
          <mxGeometry width="50" height="50" relative="1" as="geometry">
            <mxPoint x="1079.4320312255436" y="-60" as="sourcePoint" />
            <mxPoint x="1231.7157287525383" y="55.85786437626916" as="targetPoint" />
          </mxGeometry>
        </mxCell>
        <mxCell id="OuveFojcmuEkYfxnia5m-144" value="" style="endArrow=diamond;html=1;entryX=0.5;entryY=1;entryDx=0;entryDy=0;exitX=0.5;exitY=0;exitDx=0;exitDy=0;endFill=1;" parent="1" source="OuveFojcmuEkYfxnia5m-23" target="OuveFojcmuEkYfxnia5m-3" edge="1">
          <mxGeometry width="50" height="50" relative="1" as="geometry">
            <mxPoint x="420" y="550" as="sourcePoint" />
            <mxPoint x="470" y="500" as="targetPoint" />
          </mxGeometry>
        </mxCell>
        <mxCell id="OuveFojcmuEkYfxnia5m-145" value="" style="endArrow=diamond;html=1;endFill=1;" parent="1" source="OuveFojcmuEkYfxnia5m-29" target="OuveFojcmuEkYfxnia5m-3" edge="1">
          <mxGeometry width="50" height="50" relative="1" as="geometry">
            <mxPoint x="449.9999999999998" y="520" as="sourcePoint" />
            <mxPoint x="419.9999999999998" y="320" as="targetPoint" />
          </mxGeometry>
        </mxCell>
        <mxCell id="OuveFojcmuEkYfxnia5m-146" value="" style="endArrow=diamond;html=1;endFill=1;" parent="1" source="OuveFojcmuEkYfxnia5m-14" edge="1">
          <mxGeometry width="50" height="50" relative="1" as="geometry">
            <mxPoint x="459.9999999999998" y="530" as="sourcePoint" />
            <mxPoint x="470" y="290" as="targetPoint" />
          </mxGeometry>
        </mxCell>
        <mxCell id="OuveFojcmuEkYfxnia5m-147" value="" style="endArrow=diamond;html=1;exitX=0;exitY=0.5;exitDx=0;exitDy=0;endFill=1;" parent="1" source="OuveFojcmuEkYfxnia5m-67" target="OuveFojcmuEkYfxnia5m-55" edge="1">
          <mxGeometry width="50" height="50" relative="1" as="geometry">
            <mxPoint x="469.9999999999998" y="540" as="sourcePoint" />
            <mxPoint x="439.9999999999998" y="340" as="targetPoint" />
          </mxGeometry>
        </mxCell>
        <mxCell id="OuveFojcmuEkYfxnia5m-149" value="" style="endArrow=none;html=1;" parent="1" source="OuveFojcmuEkYfxnia5m-55" target="OuveFojcmuEkYfxnia5m-38" edge="1">
          <mxGeometry width="50" height="50" relative="1" as="geometry">
            <mxPoint x="820" y="120" as="sourcePoint" />
            <mxPoint x="870" y="70" as="targetPoint" />
          </mxGeometry>
        </mxCell>
        <mxCell id="OuveFojcmuEkYfxnia5m-150" value="" style="endArrow=classic;html=1;exitX=0.75;exitY=0;exitDx=0;exitDy=0;" parent="1" source="OuveFojcmuEkYfxnia5m-3" target="OuveFojcmuEkYfxnia5m-38" edge="1">
          <mxGeometry width="50" height="50" relative="1" as="geometry">
            <mxPoint x="820" y="120" as="sourcePoint" />
            <mxPoint x="870" y="70" as="targetPoint" />
          </mxGeometry>
        </mxCell>
      </root>
    </mxGraphModel>
  </diagram>
</mxfile>
